<svg width="200" height="200" viewBox="0 0 200 200" fill="none" xmlns="http://www.w3.org/2000/svg">
<path d="M148 70.75V145.125C148 147.178 147.615 149.096 146.846 150.877C146.077 152.659 145.019 154.228 143.673 155.584C142.327 156.94 140.75 158.005 138.942 158.78C137.135 159.555 135.231 159.961 133.231 160H66.7692C64.7308 160 62.8269 159.613 61.0577 158.838C59.2885 158.063 57.7308 156.998 56.3846 155.642C55.0385 154.286 53.9808 152.717 53.2115 150.936C52.4423 149.154 52.0385 147.217 52 145.125V70.75H66.7692V63.3125C66.7692 60.2523 67.3462 57.3664 68.5 54.6548C69.6538 51.9432 71.25 49.5802 73.2885 47.5659C75.3269 45.5516 77.6731 43.9634 80.3269 42.8013C82.9808 41.6392 85.8462 41.0387 88.9231 41C92.9231 41 96.6346 42.0072 100.058 44.0215C103.481 42.0072 107.154 41 111.077 41C114.115 41 116.981 41.5811 119.673 42.7432C122.365 43.9053 124.712 45.5129 126.712 47.5659C128.712 49.619 130.288 51.9819 131.442 54.6548C132.596 57.3276 133.192 60.2135 133.231 63.3125V70.75H148ZM125.846 63.3125C125.846 61.2982 125.462 59.3807 124.692 57.5601C123.923 55.7394 122.865 54.1706 121.519 52.8535C120.173 51.5365 118.596 50.4712 116.788 49.6577C114.981 48.8442 113.077 48.4375 111.077 48.4375C109.346 48.4375 107.712 48.728 106.173 49.3091C107.288 50.7036 108.173 52.0788 108.827 53.4346C109.481 54.7904 109.962 56.1462 110.269 57.502C110.577 58.8577 110.788 60.2329 110.904 61.6274C111.019 63.022 111.077 64.5133 111.077 66.1016V70.75H125.846V63.3125ZM74.1538 70.75H103.692V63.3125C103.692 61.2982 103.308 59.3807 102.538 57.5601C101.769 55.7394 100.712 54.1706 99.3654 52.8535C98.0192 51.5365 96.4423 50.4712 94.6346 49.6577C92.8269 48.8442 90.9231 48.4375 88.9231 48.4375C86.8846 48.4375 84.9808 48.8249 83.2115 49.5996C81.4423 50.3743 79.8846 51.4396 78.5385 52.7954C77.1923 54.1512 76.1346 55.7394 75.3654 57.5601C74.5962 59.3807 74.1923 61.2982 74.1538 63.3125V70.75ZM120.423 152.562C119.115 150.238 118.462 147.759 118.462 145.125V78.1875H59.3846V145.125C59.3846 146.171 59.5769 147.139 59.9615 148.03C60.3462 148.921 60.8654 149.696 61.5192 150.354C62.1731 151.013 62.9615 151.555 63.8846 151.981C64.8077 152.408 65.7692 152.601 66.7692 152.562H120.423ZM140.615 78.1875H125.846V145.125C125.846 146.171 126.038 147.139 126.423 148.03C126.808 148.921 127.327 149.696 127.981 150.354C128.635 151.013 129.423 151.555 130.346 151.981C131.269 152.408 132.231 152.601 133.231 152.562C134.269 152.562 135.231 152.369 136.115 151.981C137 151.594 137.769 151.071 138.423 150.413C139.077 149.754 139.615 148.96 140.038 148.03C140.462 147.101 140.654 146.132 140.615 145.125V78.1875Z" fill="white"/>
</svg>
